<?xml version="1.0" standalone="no"?>
<!DOCTYPE svg PUBLIC "-//W3C//DTD SVG 20010904//EN"
 "http://www.w3.org/TR/2001/REC-SVG-20010904/DTD/svg10.dtd">
<svg version="1.0" xmlns="http://www.w3.org/2000/svg"
 width="700.000000pt" height="700.000000pt" viewBox="0 0 700.000000 700.000000"
 preserveAspectRatio="xMidYMid meet">
<metadata>
Created by potrace 1.11, written by Peter Selinger 2001-2013
</metadata>
<g transform="translate(0.000000,700.000000) scale(0.100000,-0.100000)"
fill="#000000" stroke="none">
<path d="M3286 6409 c-147 -23 -292 -152 -348 -308 -20 -54 -20 -81 -21 -891
l-1 -835 -120 -75 c-67 -42 -139 -87 -161 -101 -22 -15 -155 -97 -295 -184
-140 -87 -266 -165 -280 -175 -14 -9 -92 -59 -175 -110 -82 -51 -172 -107
-200 -125 -27 -17 -171 -108 -320 -200 -148 -92 -292 -182 -320 -200 -27 -18
-143 -90 -256 -160 l-205 -128 0 -293 c0 -161 2 -291 5 -290 3 2 240 77 526
166 286 89 633 197 770 240 138 43 304 95 370 115 66 20 138 43 160 51 47 16
492 154 497 154 2 0 4 -361 3 -802 l0 -802 -282 -210 c-155 -116 -285 -215
-290 -219 -13 -14 -12 -437 2 -437 6 0 67 16 136 36 68 20 133 38 144 41 11 3
137 39 280 80 143 42 303 87 357 101 l96 25 496 -141 c273 -78 502 -142 509
-142 10 0 12 46 12 216 l0 216 -25 18 c-14 10 -144 108 -290 217 l-265 199 -3
802 c-1 441 0 802 3 802 5 0 585 -180 965 -300 85 -27 337 -106 560 -175 223
-70 477 -149 565 -177 209 -65 218 -68 230 -68 7 0 10 97 10 285 0 239 -2 287
-15 298 -12 12 -491 313 -606 382 -19 11 -163 101 -320 200 -158 99 -302 189
-320 200 -44 26 -305 189 -369 230 -27 18 -171 108 -320 200 -148 93 -296 184
-327 204 l-58 36 0 832 c0 827 0 833 -22 895 -27 79 -54 122 -112 180 -102
102 -236 148 -370 127z"/>
</g>
</svg>
